{
  "accessors": [
    {
      "bufferView": 2,
      "componentType": 5126,
      "count": 65532,
      "max": [
        1.206616997718811,
        -32.581649780273438,
        -1.5935879945755005
      ],
      "min": [
        0.70285999774932861,
        -33.525909423828125,
        -2.4160590171813965
      ],
      "type": "VEC3"
    },
    {
      "bufferView": 2,
      "byteOffset": 786384,
      "componentType": 5126,
      "count": 65532,
      "max": [
        0.99998933076858521,
        0.99997413158416748,
        0.99877488613128662
      ],
      "min": [
        -0.99989354610443115,
        -0.99997234344482422,
        -0.99997466802597046
      ],
      "type": "VEC3"
    },
    {
      "bufferView": 1,
      "componentType": 5126,
      "count": 65532,
      "max": [
        0.99858802556991577,
        0.99480599164962769
      ],
      "min": [
        2.9000000722589903e-05,
        0.0059609999880194664
      ],
      "type": "VEC2"
    },
    {
      "bufferView": 0,
      "componentType": 5125,
      "count": 364704,
      "max": [
        65531
      ],
      "min": [
        0
      ],
      "type": "SCALAR"
    },
    {
      "bufferView": 2,
      "byteOffset": 1572768,
      "componentType": 5126,
      "count": 65532,
      "max": [
        1.1216889619827271,
        -32.471115112304688,
        -0.97393900156021118
      ],
      "min": [
        0.17870999872684479,
        -33.391170501708984,
        -2.3954849243164062
      ],
      "type": "VEC3"
    },
    {
      "bufferView": 2,
      "byteOffset": 2359152,
      "componentType": 5126,
      "count": 65532,
      "max": [
        0.99998295307159424,
        0.99998623132705688,
        0.999825119972229
      ],
      "min": [
        -0.99998682737350464,
        -0.99999916553497314,
        -0.99999541044235229
      ],
      "type": "VEC3"
    },
    {
      "bufferView": 1,
      "byteOffset": 524256,
      "componentType": 5126,
      "count": 65532,
      "max": [
        0.999642014503479,
        0.99302297830581665
      ],
      "min": [
        0.018644999712705612,
        0.0010659999679774046
      ],
      "type": "VEC2"
    },
    {
      "bufferView": 0,
      "byteOffset": 1458816,
      "componentType": 5125,
      "count": 355821,
      "max": [
        65531
      ],
      "min": [
        0
      ],
      "type": "SCALAR"
    },
    {
      "bufferView": 2,
      "byteOffset": 3145536,
      "componentType": 5126,
      "count": 65532,
      "max": [
        1.2084410190582275,
        -32.464065551757812,
        -0.79372900724411011
      ],
      "min": [
        0.1786469966173172,
        -33.190906524658203,
        -2.4083750247955322
      ],
      "type": "VEC3"
    },
    {
      "bufferView": 2,
      "byteOffset": 3931920,
      "componentType": 5126,
      "count": 65532,
      "max": [
        0.99998623132705688,
        0.99999839067459106,
        0.99930232763290405
      ],
      "min": [
        -0.99999862909317017,
        -0.9999459981918335,
        -0.99960565567016602
      ],
      "type": "VEC3"
    },
    {
      "bufferView": 1,
      "byteOffset": 1048512,
      "componentType": 5126,
      "count": 65532,
      "max": [
        0.94197601079940796,
        0.9939429759979248
      ],
      "min": [
        0.0081639997661113739,
        0.0023229999933391809
      ],
      "type": "VEC2"
    },
    {
      "bufferView": 0,
      "byteOffset": 2882100,
      "componentType": 5125,
      "count": 347277,
      "max": [
        65531
      ],
      "min": [
        0
      ],
      "type": "SCALAR"
    },
    {
      "bufferView": 2,
      "byteOffset": 4718304,
      "componentType": 5126,
      "count": 65532,
      "max": [
        1.1617820262908936,
        -32.480381011962891,
        -1.5963560342788696
      ],
      "min": [
        0.47275099158287048,
        -33.036041259765625,
        -2.4160308837890625
      ],
      "type": "VEC3"
    },
    {
      "bufferView": 2,
      "byteOffset": 5504688,
      "componentType": 5126,
      "count": 65532,
      "max": [
        0.99953776597976685,
        0.99999332427978516,
        0.99982798099517822
      ],
      "min": [
        -0.99992060661315918,
        -0.99998354911804199,
        -0.99993151426315308
      ],
      "type": "VEC3"
    },
    {
      "bufferView": 1,
      "byteOffset": 1572768,
      "componentType": 5126,
      "count": 65532,
      "max": [
        0.99855101108551025,
        0.99690502882003784
      ],
      "min": [
        0.0012379999971017241,
        0.0014140000566840172
      ],
      "type": "VEC2"
    },
    {
      "bufferView": 0,
      "byteOffset": 4271208,
      "componentType": 5125,
      "count": 347964,
      "max": [
        65531
      ],
      "min": [
        0
      ],
      "type": "SCALAR"
    },
    {
      "bufferView": 2,
      "byteOffset": 6291072,
      "componentType": 5126,
      "count": 65532,
      "max": [
        1.1968430280685425,
        -32.485931396484375,
        -1.6888439655303955
      ],
      "min": [
        0.40411001443862915,
        -33.462757110595703,
        -2.3334760665893555
      ],
      "type": "VEC3"
    },
    {
      "bufferView": 2,
      "byteOffset": 7077456,
      "componentType": 5126,
      "count": 65532,
      "max": [
        0.99998599290847778,
        0.99999761581420898,
        0.99995321035385132
      ],
      "min": [
        -0.99988001585006714,
        -0.99978011846542358,
        -0.99987369775772095
      ],
      "type": "VEC3"
    },
    {
      "bufferView": 1,
      "byteOffset": 2097024,
      "componentType": 5126,
      "count": 65532,
      "max": [
        0.97133398056030273,
        0.98785799741744995
      ],
      "min": [
        0.0041169999167323112,
        0.0020699999295175076
      ],
      "type": "VEC2"
    },
    {
      "bufferView": 0,
      "byteOffset": 5663064,
      "componentType": 5125,
      "count": 355107,
      "max": [
        65531
      ],
      "min": [
        0
      ],
      "type": "SCALAR"
    },
    {
      "bufferView": 2,
      "byteOffset": 7863840,
      "componentType": 5126,
      "count": 65532,
      "max": [
        1.2084740400314331,
        -32.479625701904297,
        -1.2934780120849609
      ],
      "min": [
        0.50206100940704346,
        -33.044033050537109,
        -2.3685789108276367
      ],
      "type": "VEC3"
    },
    {
      "bufferView": 2,
      "byteOffset": 8650224,
      "componentType": 5126,
      "count": 65532,
      "max": [
        0.99998623132705688,
        0.99999886751174927,
        0.99812638759613037
      ],
      "min": [
        -0.99995744228363037,
        -0.99994021654129028,
        -0.99978792667388916
      ],
      "type": "VEC3"
    },
    {
      "bufferView": 1,
      "byteOffset": 2621280,
      "componentType": 5126,
      "count": 65532,
      "max": [
        0.99991101026535034,
        0.99682998657226562
      ],
      "min": [
        0.00015700000221841037,
        0.0001340000017080456
      ],
      "type": "VEC2"
    },
    {
      "bufferView": 0,
      "byteOffset": 7083492,
      "componentType": 5125,
      "count": 322920,
      "max": [
        65531
      ],
      "min": [
        0
      ],
      "type": "SCALAR"
    },
    {
      "bufferView": 2,
      "byteOffset": 9436608,
      "componentType": 5126,
      "count": 65532,
      "max": [
        1.1809849739074707,
        -32.480381011962891,
        -1.4429099559783936
      ],
      "min": [
        0.49398699402809143,
        -33.4154052734375,
        -2.3568570613861084
      ],
      "type": "VEC3"
    },
    {
      "bufferView": 2,
      "byteOffset": 10222992,
      "componentType": 5126,
      "count": 65532,
      "max": [
        0.99999755620956421,
        0.99999064207077026,
        0.99999433755874634
      ],
      "min": [
        -0.99999868869781494,
        -0.9999350905418396,
        -0.99959325790405273
      ],
      "type": "VEC3"
    },
    {
      "bufferView": 1,
      "byteOffset": 3145536,
      "componentType": 5126,
      "count": 65532,
      "max": [
        0.99965900182723999,
        0.9959530234336853
      ],
      "min": [
        0.00014800000644754618,
        0.00044800000614486635
      ],
      "type": "VEC2"
    },
    {
      "bufferView": 0,
      "byteOffset": 8375172,
      "componentType": 5125,
      "count": 319668,
      "max": [
        65531
      ],
      "min": [
        0
      ],
      "type": "SCALAR"
    },
    {
      "bufferView": 2,
      "byteOffset": 11009376,
      "componentType": 5126,
      "count": 65532,
      "max": [
        1.0912150144577026,
        -32.893035888671875,
        -1.4641000032424927
      ],
      "min": [
        0.54292899370193481,
        -33.466533660888672,
        -2.3470458984375
      ],
      "type": "VEC3"
    },
    {
      "bufferView": 2,
      "byteOffset": 11795760,
      "componentType": 5126,
      "count": 65532,
      "max": [
        0.99999755620956421,
        0.99996417760848999,
        0.99993604421615601
      ],
      "min": [
        -0.99999868869781494,
        -0.99999213218688965,
        -0.99999397993087769
      ],
      "type": "VEC3"
    },
    {
      "bufferView": 1,
      "byteOffset": 3669792,
      "componentType": 5126,
      "count": 65532,
      "max": [
        0.99689298868179321,
        0.99990600347518921
      ],
      "min": [
        0.0010239999974146485,
        0.0010319999419152737
      ],
      "type": "VEC2"
    },
    {
      "bufferView": 0,
      "byteOffset": 9653844,
      "componentType": 5125,
      "count": 316542,
      "max": [
        65531
      ],
      "min": [
        0
      ],
      "type": "SCALAR"
    },
    {
      "bufferView": 2,
      "byteOffset": 12582144,
      "componentType": 5126,
      "count": 65532,
      "max": [
        1.1132650375366211,
        -32.477188110351562,
        -0.69969797134399414
      ],
      "min": [
        0.2079630047082901,
        -33.464927673339844,
        -2.3316719532012939
      ],
      "type": "VEC3"
    },
    {
      "bufferView": 2,
      "byteOffset": 13368528,
      "componentType": 5126,
      "count": 65532,
      "max": [
        0.99998295307159424,
        0.99997574090957642,
        0.99995243549346924
      ],
      "min": [
        -0.99983292818069458,
        -0.99998825788497925,
        -0.99999028444290161
      ],
      "type": "VEC3"
    },
    {
      "bufferView": 1,
      "byteOffset": 4194048,
      "componentType": 5126,
      "count": 65532,
      "max": [
        0.9999690055847168,
        0.99687099456787109
      ],
      "min": [
        0.001234999974258244,
        0.00025300000561401248
      ],
      "type": "VEC2"
    },
    {
      "bufferView": 0,
      "byteOffset": 10920012,
      "componentType": 5125,
      "count": 309219,
      "max": [
        65531
      ],
      "min": [
        0
      ],
      "type": "SCALAR"
    },
    {
      "bufferView": 2,
      "byteOffset": 14154912,
      "componentType": 5126,
      "count": 65532,
      "max": [
        1.0161629915237427,
        -32.611076354980469,
        -0.69518601894378662
      ],
      "min": [
        0.20159099996089935,
        -33.423133850097656,
        -1.681736946105957
      ],
      "type": "VEC3"
    },
    {
      "bufferView": 2,
      "byteOffset": 14941296,
      "componentType": 5126,
      "count": 65532,
      "max": [
        0.99993026256561279,
        1,
        0.99999058246612549
      ],
      "min": [
        -0.99992507696151733,
        -1,
        -0.99988275766372681
      ],
      "type": "VEC3"
    },
    {
      "bufferView": 1,
      "byteOffset": 4718304,
      "componentType": 5126,
      "count": 65532,
      "max": [
        0.99895000457763672,
        0.99679899215698242
      ],
      "min": [
        0.0010270000202581286,
        1.1000000085914508e-05
      ],
      "type": "VEC2"
    },
    {
      "bufferView": 0,
      "byteOffset": 12156888,
      "componentType": 5125,
      "count": 333339,
      "max": [
        65531
      ],
      "min": [
        0
      ],
      "type": "SCALAR"
    },
    {
      "bufferView": 2,
      "byteOffset": 15727680,
      "componentType": 5126,
      "count": 27448,
      "max": [
        1.0103349685668945,
        -32.528194427490234,
        -0.69798797369003296
      ],
      "min": [
        0.18536600470542908,
        -33.423114776611328,
        -1.6009989976882935
      ],
      "type": "VEC3"
    },
    {
      "bufferView": 2,
      "byteOffset": 16057056,
      "componentType": 5126,
      "count": 27448,
      "max": [
        0.99933898448944092,
        0.9999690055847168,
        0.9996306300163269
      ],
      "min": [
        -0.99999970197677612,
        -1,
        -0.99829381704330444
      ],
      "type": "VEC3"
    },
    {
      "bufferView": 1,
      "byteOffset": 5242560,
      "componentType": 5126,
      "count": 27448,
      "max": [
        0.99858200550079346,
        0.9958459734916687
      ],
      "min": [
        0.00032299998565576971,
        0.0059679998084902763
      ],
      "type": "VEC2"
    },
    {
      "bufferView": 0,
      "byteOffset": 13490244,
      "componentType": 5125,
      "count": 118017,
      "max": [
        27447
      ],
      "min": [
        0
      ],
      "type": "SCALAR"
    }
  ],
  "asset": {
    "extras": {
      "author": "isthatg (https://sketchfab.com/isthatg)",
      "license": "CC-BY-4.0 (http://creativecommons.org/licenses/by/4.0/)",
      "source": "https://sketchfab.com/3d-models/lebron-9-ps-elite-south-beach-71de3b1bf8574744b148f0941f32fbfe",
      "title": "LeBron 9 P.S. Elite 'South Beach'"
    },
    "generator": "Sketchfab-8.57.0",
    "version": "2.0"
  },
  "bufferViews": [
    {
      "buffer": 0,
      "byteLength": 13962312,
      "byteOffset": 0,
      "name": "floatBufferViews",
      "target": 34963
    },
    {
      "buffer": 0,
      "byteLength": 5462144,
      "byteOffset": 13962312,
      "byteStride": 8,
      "name": "floatBufferViews",
      "target": 34962
    },
    {
      "buffer": 0,
      "byteLength": 16386432,
      "byteOffset": 19424456,
      "byteStride": 12,
      "name": "floatBufferViews",
      "target": 34962
    }
  ],
  "buffers": [
    {
      "byteLength": 35810888,
      "uri": "scene.bin"
    }
  ],
  "images": [
    {
      "uri": "textures/new-complete_baseColor.jpeg"
    }
  ],
  "materials": [
    {
      "doubleSided": true,
      "emissiveFactor": [
        0,
        0,
        0
      ],
      "name": "new-complete",
      "pbrMetallicRoughness": {
        "baseColorFactor": [
          1,
          1,
          1,
          1
        ],
        "baseColorTexture": {
          "index": 0,
          "texCoord": 0
        },
        "metallicFactor": 0,
        "roughnessFactor": 1
      }
    }
  ],
  "meshes": [
    {
      "primitives": [
        {
          "attributes": {
            "NORMAL": 1,
            "POSITION": 0,
            "TEXCOORD_0": 2
          },
          "indices": 3,
          "material": 0,
          "mode": 4
        }
      ]
    },
    {
      "primitives": [
        {
          "attributes": {
            "NORMAL": 5,
            "POSITION": 4,
            "TEXCOORD_0": 6
          },
          "indices": 7,
          "material": 0,
          "mode": 4
        }
      ]
    },
    {
      "primitives": [
        {
          "attributes": {
            "NORMAL": 9,
            "POSITION": 8,
            "TEXCOORD_0": 10
          },
          "indices": 11,
          "material": 0,
          "mode": 4
        }
      ]
    },
    {
      "primitives": [
        {
          "attributes": {
            "NORMAL": 13,
            "POSITION": 12,
            "TEXCOORD_0": 14
          },
          "indices": 15,
          "material": 0,
          "mode": 4
        }
      ]
    },
    {
      "primitives": [
        {
          "attributes": {
            "NORMAL": 17,
            "POSITION": 16,
            "TEXCOORD_0": 18
          },
          "indices": 19,
          "material": 0,
          "mode": 4
        }
      ]
    },
    {
      "primitives": [
        {
          "attributes": {
            "NORMAL": 21,
            "POSITION": 20,
            "TEXCOORD_0": 22
          },
          "indices": 23,
          "material": 0,
          "mode": 4
        }
      ]
    },
    {
      "primitives": [
        {
          "attributes": {
            "NORMAL": 25,
            "POSITION": 24,
            "TEXCOORD_0": 26
          },
          "indices": 27,
          "material": 0,
          "mode": 4
        }
      ]
    },
    {
      "primitives": [
        {
          "attributes": {
            "NORMAL": 29,
            "POSITION": 28,
            "TEXCOORD_0": 30
          },
          "indices": 31,
          "material": 0,
          "mode": 4
        }
      ]
    },
    {
      "primitives": [
        {
          "attributes": {
            "NORMAL": 33,
            "POSITION": 32,
            "TEXCOORD_0": 34
          },
          "indices": 35,
          "material": 0,
          "mode": 4
        }
      ]
    },
    {
      "primitives": [
        {
          "attributes": {
            "NORMAL": 37,
            "POSITION": 36,
            "TEXCOORD_0": 38
          },
          "indices": 39,
          "material": 0,
          "mode": 4
        }
      ]
    },
    {
      "primitives": [
        {
          "attributes": {
            "NORMAL": 41,
            "POSITION": 40,
            "TEXCOORD_0": 42
          },
          "indices": 43,
          "material": 0,
          "mode": 4
        }
      ]
    }
  ],
  "nodes": [
    {
      "children": [
        1
      ],
      "name": "RootNode (gltf orientation matrix)",
      "rotation": [
        -0.70710678118654746,
        -0,
        -0,
        0.70710678118654757
      ]
    },
    {
      "children": [
        2
      ],
      "matrix": [
        -2.2204460492503131e-16,
        1,
        0,
        0,
        2.2204460492503131e-16,
        0,
        -1,
        0,
        -1,
        -2.2204460492503131e-16,
        -2.2204460492503131e-16,
        0,
        -0.86206400394439697,
        -33.688541412353516,
        -34.550601959228516,
        1
      ],
      "name": "RootNode (model correction matrix)"
    },
    {
      "children": [
        3,
        4,
        5,
        6,
        7,
        8,
        9,
        10,
        11,
        12,
        13
      ],
      "name": "new-complete.obj.cleaner.materialmerger.gles"
    },
    {
      "mesh": 0,
      "name": ""
    },
    {
      "mesh": 1,
      "name": ""
    },
    {
      "mesh": 2,
      "name": ""
    },
    {
      "mesh": 3,
      "name": ""
    },
    {
      "mesh": 4,
      "name": ""
    },
    {
      "mesh": 5,
      "name": ""
    },
    {
      "mesh": 6,
      "name": ""
    },
    {
      "mesh": 7,
      "name": ""
    },
    {
      "mesh": 8,
      "name": ""
    },
    {
      "mesh": 9,
      "name": ""
    },
    {
      "mesh": 10,
      "name": ""
    }
  ],
  "samplers": [
    {
      "magFilter": 9729,
      "minFilter": 9987,
      "wrapS": 10497,
      "wrapT": 10497
    }
  ],
  "scene": 0,
  "scenes": [
    {
      "name": "OSG_Scene",
      "nodes": [
        0
      ]
    }
  ],
  "textures": [
    {
      "sampler": 0,
      "source": 0
    }
  ]
}

